{
  "accessors": [
    {
      "bufferView": 2,
      "componentType": 5126,
      "count": 301,
      "max": [
        16.419099807739258,
        16.007400512695313,
        18.41230010986328
      ],
      "min": [
        -16.419099807739258,
        -16.007400512695313,
        -18.41230010986328
      ],
      "type": "VEC3"
    },
    {
      "bufferView": 2,
      "byteOffset": 3612,
      "componentType": 5126,
      "count": 301,
      "max": [
        0.9825876951217651,
        0.9579488635063171,
        1.0
      ],
      "min": [
        -0.9825890064239502,
        -0.9579548835754395,
        -1.0
      ],
      "type": "VEC3"
    },
    {
      "bufferView": 1,
      "componentType": 5126,
      "count": 301,
      "max": [
        0.9953947067260742,
        0.9730116724967957
      ],
      "min": [
        0.011305302381515503,
        0.016588300466537476
      ],
      "type": "VEC2"
    },
    {
      "bufferView": 0,
      "componentType": 5125,
      "count": 1260,
      "type": "SCALAR"
    },
    {
      "bufferView": 2,
      "byteOffset": 7224,
      "componentType": 5126,
      "count": 350,
      "max": [
        14.978699684143066,
        14.97819995880127,
        17.53059959411621
      ],
      "min": [
        -14.978699684143066,
        -14.97819995880127,
        -17.53059959411621
      ],
      "type": "VEC3"
    },
    {
      "bufferView": 2,
      "byteOffset": 11424,
      "componentType": 5126,
      "count": 350,
      "max": [
        0.9940966367721558,
        0.9691781997680664,
        1.0
      ],
      "min": [
        -0.9940978288650513,
        -0.969188392162323,
        -1.0
      ],
      "type": "VEC3"
    },
    {
      "bufferView": 1,
      "byteOffset": 2408,
      "componentType": 5126,
      "count": 350,
      "max": [
        0.9932000041007996,
        0.989300012588501
      ],
      "min": [
        0.010700000450015068,
        0.01140000019222498
      ],
      "type": "VEC2"
    },
    {
      "bufferView": 0,
      "byteOffset": 5040,
      "componentType": 5125,
      "count": 1368,
      "type": "SCALAR"
    }
  ],
  "asset": {
    "extras": {
      "author": "ROY (https://sketchfab.com/roy.gearloft.in)",
      "license": "CC-BY-4.0 (http://creativecommons.org/licenses/by/4.0/)",
      "source": "https://sketchfab.com/3d-models/traffic-cone-bollards-e431856a119244da898928ecf684638a",
      "title": "Traffic Cone / bollards"
    },
    "generator": "Sketchfab-13.83.0",
    "version": "2.0"
  },
  "bufferViews": [
    {
      "buffer": 0,
      "byteLength": 10512,
      "name": "floatBufferViews",
      "target": 34963
    },
    {
      "buffer": 0,
      "byteLength": 5208,
      "byteOffset": 10512,
      "byteStride": 8,
      "name": "floatBufferViews",
      "target": 34962
    },
    {
      "buffer": 0,
      "byteLength": 15624,
      "byteOffset": 15720,
      "byteStride": 12,
      "name": "floatBufferViews",
      "target": 34962
    }
  ],
  "buffers": [
    {
      "byteLength": 31344,
      "uri": "scene.bin"
    }
  ],
  "images": [
    {
      "uri": "textures/cone1_baseColor.jpeg"
    },
    {
      "uri": "textures/cone2_baseColor.jpeg"
    }
  ],
  "materials": [
    {
      "doubleSided": true,
      "name": "cone1",
      "pbrMetallicRoughness": {
        "baseColorTexture": {
          "index": 0
        },
        "metallicFactor": 0.373984,
        "roughnessFactor": 0.361789
      }
    },
    {
      "doubleSided": true,
      "name": "cone2",
      "pbrMetallicRoughness": {
        "baseColorTexture": {
          "index": 1
        },
        "metallicFactor": 0.512195,
        "roughnessFactor": 0.4556204361765674
      }
    }
  ],
  "meshes": [
    {
      "name": "Object_0",
      "primitives": [
        {
          "attributes": {
            "NORMAL": 1,
            "POSITION": 0,
            "TEXCOORD_0": 2
          },
          "indices": 3,
          "material": 0,
          "mode": 4
        }
      ]
    },
    {
      "name": "Object_1",
      "primitives": [
        {
          "attributes": {
            "NORMAL": 5,
            "POSITION": 4,
            "TEXCOORD_0": 6
          },
          "indices": 7,
          "material": 1,
          "mode": 4
        }
      ]
    }
  ],
  "nodes": [
    {
      "children": [
        1
      ],
      "matrix": [
        0.7040390372276306,
        0.0,
        0.0,
        0.0,
        0.0,
        1.5632806987300865e-16,
        -0.7040390372276306,
        0.0,
        0.0,
        0.7040390372276306,
        1.5632806987300865e-16,
        0.0,
        0.0,
        0.0,
        0.0,
        1.0
      ],
      "name": "Sketchfab_model"
    },
    {
      "children": [
        2
      ],
      "name": "root"
    },
    {
      "children": [
        3,
        5
      ],
      "matrix": [
        1.0,
        0.0,
        0.0,
        0.0,
        0.0,
        2.220446049250313e-16,
        1.0,
        0.0,
        0.0,
        -1.0,
        2.220446049250313e-16,
        0.0,
        0.0,
        0.0,
        0.0,
        1.0
      ],
      "name": "GLTF_SceneRootNode"
    },
    {
      "children": [
        4
      ],
      "matrix": [
        0.020064055919647217,
        0.0,
        0.0,
        0.0,
        0.0,
        -3.3825469593810867e-09,
        0.020064055919646932,
        0.0,
        0.0,
        -0.020064055919646932,
        -3.3825469593810867e-09,
        0.0,
        -0.37381741404533386,
        0.36950013041496277,
        0.0,
        1.0
      ],
      "name": "cone1_obj_0"
    },
    {
      "mesh": 0,
      "name": "Object_4"
    },
    {
      "children": [
        6
      ],
      "matrix": [
        0.020919928327202797,
        0.0,
        0.0,
        0.0,
        0.0,
        -3.5268362606763654e-09,
        0.0209199283272025,
        0.0,
        0.0,
        -0.0209199283272025,
        -3.5268362606763654e-09,
        0.0,
        0.3482622802257538,
        0.36841219663619995,
        0.0,
        1.0
      ],
      "name": "cone2_obj_1"
    },
    {
      "mesh": 1,
      "name": "Object_6"
    }
  ],
  "samplers": [
    {
      "magFilter": 9729,
      "minFilter": 9987,
      "wrapS": 10497,
      "wrapT": 10497
    }
  ],
  "scene": 0,
  "scenes": [
    {
      "name": "Sketchfab_Scene",
      "nodes": [
        0
      ]
    }
  ],
  "textures": [
    {
      "sampler": 0,
      "source": 0
    },
    {
      "sampler": 0,
      "source": 1
    }
  ]
}
